<svg width="16" height="16" viewBox="0 0 16 16" fill="none" xmlns="http://www.w3.org/2000/svg">
<rect width="16" height="16" fill="#1E1E1E"/>
<g id="Sign up/Sign in">
<path d="M-1457 -1163C-1457 -1164.1 -1456.1 -1165 -1455 -1165H642C643.104 -1165 644 -1164.1 644 -1163V1869C644 1870.1 643.104 1871 642 1871H-1455C-1456.1 1871 -1457 1870.1 -1457 1869V-1163Z" fill="#444444"/>
<path d="M-1455 -1165V-1164H642V-1165V-1166H-1455V-1165ZM644 -1163H643V1869H644H645V-1163H644ZM642 1871V1870H-1455V1871V1872H642V1871ZM-1457 1869H-1456V-1163H-1457H-1458V1869H-1457ZM-1455 1871V1870C-1455.55 1870 -1456 1869.55 -1456 1869H-1457H-1458C-1458 1870.66 -1456.66 1872 -1455 1872V1871ZM644 1869H643C643 1869.55 642.552 1870 642 1870V1871V1872C643.657 1872 645 1870.66 645 1869H644ZM642 -1165V-1164C642.552 -1164 643 -1163.55 643 -1163H644H645C645 -1164.66 643.657 -1166 642 -1166V-1165ZM-1455 -1165V-1166C-1456.66 -1166 -1458 -1164.66 -1458 -1163H-1457H-1456C-1456 -1163.55 -1455.55 -1164 -1455 -1164V-1165Z" fill="white" fill-opacity="0.1"/>
<g id="Sign up" clip-path="url(#clip0_33_1184)">
<rect id="Rectangle 121" x="-425" y="-828" width="720" height="1024" fill="#F9F9F9"/>
<g id="illustration" clip-path="url(#clip1_33_1184)">
<g id="&#195;&#149;&#194;&#186;&#226;&#137;&#164;&#226;&#128;&#158;_8">
<g id="Group">
<path id="Vector" d="M-0.059237 2.51009C0.208129 0.548926 1.44595 0.0102944 2.17873 1.55712C3.08976 3.46304 2.40649 6.54286 1.18848 6.18377H1.04983C0.619581 5.81315 0.284444 5.26224 0.0923461 4.6098C-0.0997516 3.95737 -0.138979 3.23686 -0.0196489 2.55147" fill="#56535F"/>
<path id="Vector_2" d="M8.26839 6.5708C8.58528 4.36099 10.0212 3.80854 10.853 5.53495C11.9027 7.70332 11.0906 11.1561 9.63495 10.7417L9.47654 10.6727C8.98102 10.2571 8.59542 9.62875 8.37761 8.88172C8.1598 8.1347 8.12146 7.30929 8.26839 6.52932" fill="#56535F"/>
</g>
</g>
</g>
<g id="Group 368">
<g id="Frame 10123765">
<rect x="-334.5" y="-176.5" width="539" height="227" rx="7.5" fill="white"/>
<rect x="-334.5" y="-176.5" width="539" height="227" rx="7.5" stroke="#D2CFD5"/>
<g id="Frame 10123771">
<g id="ArrowRight">
<g id="In App / Arrows / ArrowLeft" clip-path="url(#clip2_33_1184)">
<g id="ArrowLeft">
<path id="Vector_3" d="M13.5 8.00006H2.5" stroke="#FF4C00" stroke-width="2" stroke-linecap="round" stroke-linejoin="round"/>
<path id="Vector_4" d="M9 12.5001L13.5 8.00006L9 3.50006" stroke="#FF4C00" stroke-width="2" stroke-linecap="round" stroke-linejoin="round"/>
</g>
</g>
</g>
</g>
</g>
</g>
</g>
</g>
<defs>
<clipPath id="clip0_33_1184">
<rect width="1440" height="1024" fill="white" transform="translate(-1145 -828)"/>
</clipPath>
<clipPath id="clip1_33_1184">
<rect width="665" height="777" fill="white" transform="translate(-248 -571)"/>
</clipPath>
<clipPath id="clip2_33_1184">
<rect width="16" height="16" fill="white"/>
</clipPath>
</defs>
</svg>
