<svg width="20" height="20" viewBox="0 0 20 20" fill="none" xmlns="http://www.w3.org/2000/svg">
<path fill-rule="evenodd" clip-rule="evenodd" d="M10 2C5.58172 2 2 5.58172 2 10C2 14.4183 5.58172 18 10 18C14.4183 18 18 14.4183 18 10C18 5.58172 14.4183 2 10 2ZM0 10C0 4.47715 4.47715 0 10 0C15.5228 0 20 4.47715 20 10C20 15.5228 15.5228 20 10 20C4.47715 20 0 15.5228 0 10Z" fill="white"/>
<path fill-rule="evenodd" clip-rule="evenodd" d="M0 10C0 9.44772 0.447715 9 1 9H19C19.5523 9 20 9.44772 20 10C20 10.5523 19.5523 11 19 11H1C0.447715 11 0 10.5523 0 10Z" fill="white"/>
<path fill-rule="evenodd" clip-rule="evenodd" d="M8.26763 4.20045C7.65396 5.63373 7.25 7.68349 7.25 9.99998C7.25 12.3165 7.65396 14.3662 8.26763 15.7995C8.57524 16.5179 8.91584 17.0354 9.24311 17.3587C9.5661 17.6778 9.82074 17.7584 10 17.7584C10.1793 17.7584 10.4339 17.6778 10.7569 17.3587C11.0842 17.0354 11.4248 16.5179 11.7324 15.7995C12.346 14.3662 12.75 12.3165 12.75 9.99998C12.75 7.68349 12.346 5.63373 11.7324 4.20045C11.4248 3.48202 11.0842 2.96456 10.7569 2.64127C10.4339 2.32219 10.1793 2.24158 10 2.24158C9.82074 2.24158 9.5661 2.32219 9.24311 2.64127C8.91584 2.96456 8.57524 3.48202 8.26763 4.20045ZM7.83755 1.21845C8.41185 0.651123 9.14373 0.241577 10 0.241577C10.8563 0.241577 11.5882 0.651123 12.1624 1.21845C12.7325 1.78155 13.1999 2.54673 13.5709 3.41325C14.3145 5.14989 14.75 7.47934 14.75 9.99998C14.75 12.5206 14.3145 14.8501 13.5709 16.5867C13.1999 17.4532 12.7325 18.2184 12.1624 18.7815C11.5882 19.3488 10.8563 19.7584 10 19.7584C9.14373 19.7584 8.41185 19.3488 7.83755 18.7815C7.26754 18.2184 6.80008 17.4532 6.42907 16.5867C5.68551 14.8501 5.25 12.5206 5.25 9.99998C5.25 7.47934 5.68551 5.14989 6.42907 3.41325C6.80008 2.54673 7.26754 1.78155 7.83755 1.21845Z" fill="white"/>
</svg>
