<svg width="26" height="26" viewBox="0 0 26 26" fill="none" xmlns="http://www.w3.org/2000/svg">
<g clip-path="url(#clip0_33_42116)">
<path d="M7.5088 15.9496C8.30538 15.9496 8.98247 15.6708 9.54008 15.1133C10.0977 14.5556 10.3765 13.8786 10.3765 13.082C10.3765 12.2854 10.0977 11.6083 9.54008 11.0507C8.98247 10.4931 8.30538 10.2143 7.5088 10.2143C6.71222 10.2143 6.03513 10.4931 5.47752 11.0507C4.91993 11.6083 4.64113 12.2854 4.64113 13.082C4.64113 13.8786 4.91993 14.5556 5.47752 15.1133C6.03513 15.6708 6.71222 15.9496 7.5088 15.9496ZM7.5088 19.5502C5.73356 19.5502 4.21171 18.916 2.94325 17.6475C1.67479 16.3791 1.04056 14.8572 1.04056 13.082C1.04056 11.3067 1.67479 9.78489 2.94325 8.51643C4.21171 7.24795 5.73356 6.61371 7.5088 6.61371C8.89865 6.61371 10.1273 7.01466 11.1947 7.81656C12.2621 8.61847 13.0128 9.66351 13.4468 10.9517H22.8397L25.0406 13.123L22.5666 16.7235L19.7991 14.3838L17.4457 16.5095L15.9914 15.2123H13.4468C13.119 16.4307 12.418 17.4583 11.3437 18.2951C10.2694 19.1318 8.99112 19.5502 7.5088 19.5502Z" fill="#853D15"/>
</g>
<defs>
<clipPath id="clip0_33_42116">
<rect width="25" height="25" fill="white" transform="translate(0.333359 0.5)"/>
</clipPath>
</defs>
</svg>
